<svg width="40.000000" height="40.000000" viewBox="0 0 40 40" fill="none" xmlns="http://www.w3.org/2000/svg" xmlns:xlink="http://www.w3.org/1999/xlink">
	<desc>
			Created with Pixso.
	</desc>
	<defs>
		<clipPath id="clip24_6236">
			<rect id="Icon-Customer service" rx="-0.500000" width="39.000000" height="39.000000" transform="translate(0.500000 0.500000)" fill="white" fill-opacity="0"/>
		</clipPath>
	</defs>
	<g clip-path="url(#clip24_6236)">
		<path id="Vector" d="M13.33 25L13.33 28.33C13.33 30.17 11.84 31.66 9.99 31.66C8.15 31.66 6.66 30.17 6.66 28.33L6.66 25C6.66 23.15 8.15 21.66 9.99 21.66C11.84 21.66 13.33 23.15 13.33 25Z" stroke="#FFFFFF" stroke-opacity="1.000000" stroke-width="2.000000" stroke-linejoin="round"/>
		<path id="Vector" d="M33.33 25L33.33 28.33C33.33 30.17 31.84 31.66 29.99 31.66C28.15 31.66 26.66 30.17 26.66 28.33L26.66 25C26.66 23.15 28.15 21.66 29.99 21.66C31.84 21.66 33.33 23.15 33.33 25Z" stroke="#FFFFFF" stroke-opacity="1.000000" stroke-width="2.000000" stroke-linejoin="round"/>
		<path id="Vector" d="M6.66 25L6.66 20C6.66 16.46 8.07 13.07 10.57 10.57C13.07 8.07 16.46 6.66 19.99 6.66C23.53 6.66 26.92 8.07 29.42 10.57C31.92 13.07 33.33 16.46 33.33 20L33.33 25" stroke="#FFFFFF" stroke-opacity="1.000000" stroke-width="2.000000" stroke-linejoin="round" stroke-linecap="round"/>
		<path id="Vector" d="M30 31.66C30 32.99 28.94 34.26 27.07 35.2C25.19 36.13 22.65 36.66 20 36.66" stroke="#FFFFFF" stroke-opacity="1.000000" stroke-width="2.000000" stroke-linejoin="round" stroke-linecap="round"/>
	</g>
</svg>
