<svg width="40.000000" height="40.000000" viewBox="0 0 40 40" fill="none" xmlns="http://www.w3.org/2000/svg" xmlns:xlink="http://www.w3.org/1999/xlink">
	<desc>
			Created with Pixso.
	</desc>
	<defs/>
	<rect id="Icon-secure" rx="-0.500000" width="39.000000" height="39.000000" transform="translate(0.500000 0.500000)" fill="#FFFFFF" fill-opacity="0"/>
	<path id="Vector" d="M20 37.93C18.18 37.93 16.38 37.39 14.96 36.35L7.8 31C5.9 29.58 4.41 26.61 4.41 24.26L4.41 11.86C4.41 9.29 6.3 6.56 8.71 5.66L17.03 2.54C18.68 1.93 21.28 1.93 22.93 2.54L31.25 5.66C33.66 6.56 35.55 9.29 35.55 11.86L35.55 24.25C35.55 26.61 34.06 29.56 32.16 30.98L25 36.33C23.61 37.39 21.81 37.93 20 37.93ZM17.91 4.89L9.6 8.01C8.18 8.54 6.93 10.35 6.93 11.88L6.93 24.26C6.93 25.85 8.05 28.06 9.3 29L16.46 34.35C18.38 35.78 21.61 35.78 23.55 34.35L30.71 29C31.98 28.04 33.08 25.85 33.08 24.26L33.08 11.86C33.08 10.35 31.83 8.54 30.41 8L22.1 4.88C20.96 4.48 19.03 4.48 17.91 4.89Z" fill="#FAFAFA" fill-opacity="1.000000" fill-rule="nonzero"/>
	<path id="Vector" d="M20 37.93C18.18 37.93 16.38 37.39 14.96 36.35L7.8 31C5.9 29.58 4.41 26.61 4.41 24.26L4.41 11.86C4.41 9.29 6.3 6.56 8.71 5.66L17.03 2.54C18.68 1.93 21.28 1.93 22.93 2.54L31.25 5.66C33.66 6.56 35.55 9.29 35.55 11.86L35.55 24.25C35.55 26.61 34.06 29.56 32.16 30.98L25 36.33C23.61 37.39 21.81 37.93 20 37.93ZM15.56 35.54Q15.56 35.54 15.56 35.54L8.39 30.19Q6.89 29.07 6.15 27.58Q5.41 26.1 5.41 24.26L5.41 11.86Q5.41 9.9 6.33 8.58Q7.24 7.28 9.06 6.6L17.38 3.48Q18.68 3 19.98 3Q21.28 3 22.58 3.48L30.89 6.6Q32.71 7.28 33.63 8.59Q34.55 9.9 34.55 11.86L34.55 24.25Q34.55 26.09 33.81 27.56Q33.06 29.06 31.56 30.18L24.4 35.53Q23.99 35.84 23.55 36.08Q22 36.93 20 36.93Q18.09 36.93 16.57 36.16Q16.04 35.9 15.56 35.54ZM17.56 3.96L9.24 7.08L9.24 7.08Q7.6 7.7 6.77 8.89Q5.93 10.09 5.93 11.88L5.93 24.26Q5.93 26.01 6.63 27.4Q7.33 28.77 8.7 29.8L15.86 35.15Q16.17 35.37 16.49 35.56Q18 36.42 20 36.42Q21.97 36.42 23.48 35.58Q23.82 35.38 24.14 35.15L31.31 29.8Q32.7 28.76 33.39 27.37Q34.08 25.99 34.08 24.26L34.08 11.86Q34.08 10.13 33.27 8.93Q32.45 7.71 30.77 7.06L22.45 3.94Q21.04 3.45 19.66 3.52Q18.6 3.57 17.56 3.96ZM17.91 4.89L9.6 8.01C8.18 8.54 6.93 10.35 6.93 11.88L6.93 24.26C6.93 25.85 8.05 28.06 9.3 29L16.46 34.35C18.38 35.78 21.61 35.78 23.55 34.35L30.71 29C31.98 28.04 33.08 25.85 33.08 24.26L33.08 11.86C33.08 10.35 31.83 8.54 30.41 8L22.1 4.88C20.96 4.48 19.03 4.48 17.91 4.89Z" fill="#FAFAFA" fill-opacity="1.000000" fill-rule="evenodd"/>
	<path id="Vector" d="M17.76 23.71C17.45 23.71 17.13 23.6 16.88 23.35L14.2 20.66C13.71 20.18 13.71 19.38 14.2 18.89C14.68 18.41 15.48 18.41 15.96 18.89L17.76 20.7L24.05 14.41C24.53 13.93 25.33 13.93 25.81 14.41C26.3 14.89 26.3 15.7 25.81 16.18L18.65 23.35C18.4 23.6 18.08 23.71 17.76 23.71Z" fill="#FAFAFA" fill-opacity="1.000000" fill-rule="nonzero"/>
	<path id="Vector" d="M17.05 19.99L15.96 18.89C15.48 18.41 14.68 18.41 14.2 18.89C13.71 19.38 13.71 20.18 14.2 20.66L16.88 23.35C17.13 23.6 17.45 23.71 17.76 23.71C18.08 23.71 18.4 23.6 18.65 23.35L25.81 16.18C26.3 15.7 26.3 14.89 25.81 14.41C25.33 13.93 24.53 13.93 24.05 14.41L18.47 19.99L17.76 20.7L17.05 19.99ZM17.67 22.7Q17.62 22.68 17.59 22.64L14.9 19.95Q14.88 19.93 14.86 19.9Q14.83 19.85 14.83 19.78Q14.83 19.71 14.86 19.66Q14.88 19.63 14.9 19.6Q14.93 19.58 14.96 19.56Q15.01 19.53 15.08 19.53Q15.15 19.53 15.2 19.56Q15.23 19.58 15.25 19.6L17.76 22.11L24.75 15.12Q24.78 15.09 24.81 15.08Q24.86 15.05 24.93 15.05Q25 15.05 25.05 15.08Q25.08 15.09 25.1 15.12Q25.13 15.14 25.15 15.17Q25.17 15.23 25.17 15.29Q25.17 15.36 25.15 15.42Q25.13 15.45 25.1 15.47L17.94 22.64Q17.9 22.68 17.85 22.7Q17.81 22.71 17.76 22.71Q17.71 22.71 17.67 22.7Z" fill="#FAFAFA" fill-opacity="1.000000" fill-rule="evenodd"/>
	<g opacity="0.000000">
		<path id="Vector" d="M40 0L0 0L0 40L40 40L40 0ZM1 39L1 1L39 1L39 39L1 39Z" fill="#FAFAFA" fill-opacity="1.000000" fill-rule="evenodd"/>
	</g>
</svg>
