<svg width="26.666992" height="33.333252" viewBox="0 0 26.667 33.3333" fill="none" xmlns="http://www.w3.org/2000/svg" xmlns:xlink="http://www.w3.org/1999/xlink">
	<desc>
			Created with Pixso.
	</desc>
	<defs/>
	<path id="Vector" d="M5 8.33L5 4.99C5 4.03 5.27 3.09 5.8 2.28C6.32 1.47 7.07 0.82 7.95 0.43C8.83 0.04 9.81 -0.09 10.76 0.05C11.72 0.2 12.61 0.62 13.33 1.27C14.05 0.62 14.94 0.2 15.89 0.05C16.85 -0.09 17.82 0.04 18.7 0.43C19.58 0.82 20.33 1.47 20.86 2.28C21.38 3.09 21.66 4.03 21.66 4.99L21.66 8.33L24.16 8.33C24.83 8.33 25.46 8.59 25.93 9.06C26.4 9.53 26.66 10.17 26.66 10.83L26.66 27.5C26.66 29.05 26.05 30.53 24.96 31.62C23.86 32.71 22.38 33.33 20.84 33.33L6.66 33.33C4.89 33.33 3.2 32.63 1.95 31.38C0.7 30.13 0 28.43 0 26.66L0 10.83C0 10.17 0.26 9.53 0.73 9.06C1.2 8.59 1.83 8.33 2.5 8.33L5 8.33ZM16.05 30.83C15.37 29.85 15.01 28.69 15.01 27.5L15.01 10.83L2.5 10.83L2.5 26.66C2.5 27.21 2.6 27.75 2.81 28.26C3.02 28.76 3.33 29.22 3.72 29.61C4.1 29.99 4.56 30.3 5.07 30.51C5.57 30.72 6.11 30.83 6.66 30.83L16.05 30.83ZM12.5 8.33L12.5 4.99C12.5 4.33 12.23 3.7 11.76 3.23C11.29 2.76 10.66 2.49 10 2.49C9.33 2.49 8.7 2.76 8.23 3.23C7.76 3.7 7.5 4.33 7.5 4.99L7.5 8.33L12.5 8.33ZM15 8.33L19.16 8.33L19.16 4.99C19.16 4.48 19 3.98 18.71 3.56C18.41 3.14 17.99 2.82 17.51 2.64C17.02 2.47 16.5 2.45 16 2.58C15.51 2.72 15.06 3.01 14.74 3.4C14.9 3.9 15 4.44 15 4.99L15 8.33ZM17.51 27.5C17.51 28.39 17.86 29.23 18.49 29.85C19.11 30.48 19.95 30.83 20.84 30.83C21.72 30.83 22.56 30.48 23.19 29.85C23.81 29.23 24.16 28.39 24.16 27.5L24.16 10.83L17.51 10.83L17.51 27.5Z" fill="#FFFFFF" fill-opacity="1.000000" fill-rule="nonzero"/>
</svg>
