<svg width="40.000000" height="40.000000" viewBox="0 0 40 40" fill="none" xmlns="http://www.w3.org/2000/svg" xmlns:xlink="http://www.w3.org/1999/xlink">
	<desc>
			Created with Pixso.
	</desc>
	<defs>
		<clipPath id="clip10_1897">
			<rect id="Icon-Sale" width="40.000000" height="40.000000" fill="white" fill-opacity="0"/>
		</clipPath>
	</defs>
	<g clip-path="url(#clip10_1897)">
		<path id="Vector" d="M20 37.27C10.46 37.27 2.72 29.53 2.72 20C2.72 10.46 10.46 2.72 20 2.72C29.54 2.72 37.27 10.46 37.27 20C37.27 29.53 29.54 37.27 20 37.27Z" stroke="#ffffff" stroke-opacity="1.000000" stroke-width="2.000000" stroke-linejoin="round"/>
		<path id="Vector" d="M25.09 14.54C24.76 13.97 24.28 13.5 23.7 13.18C23.13 12.86 22.47 12.7 21.81 12.72L18.18 12.72C17.21 12.72 16.29 13.11 15.61 13.79C14.92 14.47 14.54 15.4 14.54 16.36C14.54 17.32 14.92 18.25 15.61 18.93C16.29 19.61 17.21 20 18.18 20L21.81 20C22.78 20 23.7 20.38 24.38 21.06C25.07 21.74 25.45 22.67 25.45 23.63C25.45 24.59 25.07 25.52 24.38 26.2C23.7 26.88 22.78 27.27 21.81 27.27L18.18 27.27C17.52 27.29 16.87 27.13 16.29 26.81C15.71 26.49 15.23 26.02 14.9 25.45" stroke="#ffffff" stroke-opacity="1.000000" stroke-width="2.750000" stroke-linejoin="round" stroke-linecap="round"/>
		<path id="Vector" d="M20 8.18L20 8.18M20 8.18L20 8.18" stroke="#ffffff" stroke-opacity="1.000000" stroke-width="2.750000" stroke-linejoin="round" stroke-linecap="round"/>
	</g>
</svg>
