<svg width="34.662109" height="32.000000" viewBox="0 0 34.6621 32" fill="none" xmlns="http://www.w3.org/2000/svg" xmlns:xlink="http://www.w3.org/1999/xlink">
	<desc>
			Created with Pixso.
	</desc>
	<defs/>
	<path id="Vector" d="M24.83 1L25.66 9.33C25.66 9.33 27.33 11 29.83 11C31.14 11 32.41 10.52 33.39 9.65C33.49 9.55 33.57 9.43 33.62 9.3C33.66 9.16 33.67 9.02 33.64 8.88L32.46 1.83C32.42 1.6 32.3 1.38 32.12 1.23C31.94 1.08 31.71 1 31.48 1L24.83 1Z" stroke="#FFFFFF" stroke-opacity="1.000000" stroke-width="2.000000"/>
	<path id="Vector" d="M25.66 9.33C25.66 9.33 23.99 11 21.49 11C18.99 11 17.33 9.33 17.33 9.33L17.33 1L24.83 1L25.66 9.33Z" stroke="#FAFAFA" stroke-opacity="1.000000" stroke-width="2.000000"/>
	<path id="Vector" d="M17.33 9.33C17.33 9.33 15.66 11 13.16 11C10.66 11 8.99 9.33 8.99 9.33L9.83 1L17.33 1L17.33 9.33Z" stroke="#FAFAFA" stroke-opacity="1.000000" stroke-width="2.000000"/>
	<path id="Vector" d="M3.17 1C2.94 0.99 2.71 1.08 2.53 1.23C2.35 1.38 2.23 1.6 2.19 1.83L1.01 8.88C0.98 9.02 0.99 9.16 1.04 9.3C1.08 9.43 1.16 9.56 1.26 9.65C1.81 10.14 3.03 11 4.83 11C7.33 11 8.99 9.33 8.99 9.33L9.83 1L9.83 1L3.17 1Z" stroke="#FAFAFA" stroke-opacity="1.000000" stroke-width="2.000000"/>
	<path id="Vector" d="M2.34 11L2.34 27.66C2.34 28.55 2.69 29.39 3.31 30.02C3.94 30.64 4.79 31 5.67 31L29 31C29.89 31 30.74 30.64 31.36 30.02C31.99 29.39 32.34 28.55 32.34 27.66L32.34 11" stroke="#FAFAFA" stroke-opacity="1.000000" stroke-width="2.000000"/>
	<path id="Vector" d="M22.06 31L22.06 21C22.06 20.11 21.71 19.26 21.08 18.64C20.46 18.01 19.61 17.66 18.73 17.66L15.39 17.66C14.51 17.66 13.66 18.01 13.04 18.64C12.41 19.26 12.06 20.11 12.06 21L12.06 31" stroke="#FAFAFA" stroke-opacity="1.000000" stroke-width="2.000000"/>
</svg>
