<svg width="30.914062" height="33.378662" viewBox="0 0 30.9141 33.3787" fill="none" xmlns="http://www.w3.org/2000/svg" xmlns:xlink="http://www.w3.org/1999/xlink">
	<desc>
			Created with Pixso.
	</desc>
	<defs/>
	<path id="Vector" d="M19.88 17.3C19.62 16.58 19.15 15.95 18.52 15.51C17.9 15.07 17.15 14.83 16.38 14.83L16.38 13.9L14.53 13.9L14.53 14.83C13.54 14.83 12.6 15.22 11.9 15.92C11.21 16.61 10.82 17.56 10.82 18.54C10.82 19.52 11.21 20.47 11.9 21.16C12.6 21.86 13.54 22.25 14.53 22.25L14.53 25.96C13.72 25.96 13.03 25.44 12.78 24.72C12.74 24.6 12.68 24.5 12.6 24.4C12.52 24.31 12.42 24.23 12.31 24.18C12.2 24.12 12.07 24.09 11.95 24.08C11.83 24.07 11.7 24.09 11.59 24.13C11.47 24.17 11.36 24.24 11.27 24.32C11.18 24.4 11.1 24.51 11.05 24.62C11 24.73 10.97 24.85 10.97 24.98C10.96 25.1 10.99 25.22 11.03 25.34C11.29 26.06 11.76 26.69 12.39 27.13C13.01 27.58 13.76 27.81 14.53 27.81L14.53 28.74L16.38 28.74L16.38 27.81C17.37 27.81 18.31 27.42 19 26.73C19.7 26.03 20.09 25.09 20.09 24.1C20.09 23.12 19.7 22.18 19 21.48C18.31 20.79 17.37 20.39 16.38 20.39L16.38 16.69C16.77 16.69 17.14 16.8 17.45 17.03C17.77 17.25 18 17.56 18.13 17.92C18.21 18.15 18.38 18.34 18.61 18.45C18.71 18.5 18.83 18.53 18.96 18.54C19.08 18.55 19.2 18.53 19.31 18.49C19.43 18.45 19.53 18.38 19.62 18.3C19.72 18.22 19.79 18.12 19.84 18.01C19.89 17.9 19.92 17.78 19.93 17.66C19.94 17.54 19.92 17.42 19.88 17.3ZM14.53 16.69C14.04 16.69 13.56 16.88 13.22 17.23C12.87 17.58 12.67 18.05 12.67 18.54C12.67 19.03 12.87 19.5 13.22 19.85C13.56 20.2 14.04 20.39 14.53 20.39L14.53 16.69ZM16.38 25.96C16.87 25.96 17.35 25.76 17.69 25.42C18.04 25.07 18.24 24.6 18.24 24.1C18.24 23.61 18.04 23.14 17.69 22.79C17.35 22.44 16.87 22.25 16.38 22.25L16.38 25.96Z" fill="#FAFAFA" fill-opacity="1.000000" fill-rule="evenodd"/>
	<path id="Vector" d="M17.38 16.98C17.41 16.99 17.43 17.01 17.45 17.03C17.77 17.25 18 17.56 18.13 17.92C18.21 18.15 18.38 18.34 18.61 18.45C18.71 18.5 18.83 18.53 18.96 18.54C19.08 18.55 19.2 18.53 19.31 18.49C19.43 18.45 19.53 18.38 19.62 18.3C19.72 18.22 19.79 18.12 19.84 18.01C19.89 17.9 19.92 17.78 19.93 17.66C19.94 17.54 19.92 17.42 19.88 17.3C19.62 16.58 19.15 15.95 18.52 15.51C17.9 15.07 17.15 14.83 16.38 14.83L16.38 13.9L14.53 13.9L14.53 14.83C13.54 14.83 12.6 15.22 11.9 15.92C11.21 16.61 10.82 17.56 10.82 18.54C10.82 19.52 11.21 20.47 11.9 21.16C12.6 21.86 13.54 22.25 14.53 22.25L14.53 25.96C14.16 25.96 13.82 25.85 13.53 25.67C13.18 25.45 12.92 25.11 12.78 24.72C12.74 24.6 12.68 24.5 12.6 24.4C12.52 24.31 12.42 24.23 12.31 24.18C12.2 24.12 12.07 24.09 11.95 24.08C11.83 24.07 11.7 24.09 11.59 24.13C11.47 24.17 11.36 24.24 11.27 24.32C11.18 24.4 11.1 24.51 11.05 24.62C11 24.73 10.97 24.85 10.97 24.98C10.96 25.1 10.99 25.22 11.03 25.34C11.29 26.06 11.76 26.69 12.39 27.13C13.01 27.58 13.76 27.81 14.53 27.81L14.53 28.74L16.38 28.74L16.38 27.81C17.37 27.81 18.31 27.42 19 26.73C19.7 26.03 20.09 25.09 20.09 24.1C20.09 23.12 19.7 22.18 19 21.48C18.31 20.79 17.37 20.39 16.38 20.39L16.38 16.69L16.38 16.69C16.74 16.69 17.08 16.79 17.38 16.98ZM13.53 16.98C13.42 17.05 13.31 17.13 13.22 17.23C12.87 17.58 12.67 18.05 12.67 18.54C12.67 19.03 12.87 19.5 13.22 19.85C13.31 19.95 13.42 20.03 13.53 20.1C13.82 20.29 14.17 20.39 14.53 20.39L14.53 16.69C14.17 16.69 13.82 16.79 13.53 16.98ZM16.38 24.96L16.38 22.25C16.74 22.25 17.09 22.35 17.38 22.54C17.49 22.61 17.6 22.7 17.69 22.79C18.04 23.14 18.24 23.61 18.24 24.1C18.24 24.6 18.04 25.07 17.69 25.42C17.6 25.51 17.49 25.59 17.38 25.67C17.09 25.86 16.74 25.96 16.38 25.96L16.38 24.96Z" fill="#FAFAFA" fill-opacity="1.000000" fill-rule="evenodd"/>
	<path id="Vector" d="M5.4 2.43C7.67 1.31 11.41 0 15.49 0C19.49 0 23.13 1.26 25.39 2.36L25.52 2.42C26.2 2.76 26.75 3.07 27.14 3.33L23.71 8.34C31.61 16.41 37.71 33.37 15.49 33.37C-6.73 33.37 -0.79 16.72 7.17 8.34L3.77 3.33C4.03 3.16 4.37 2.96 4.76 2.75C4.96 2.65 5.17 2.54 5.4 2.43L5.4 2.43ZM21.51 8.27L24.25 4.27C21.7 4.45 18.67 5.05 15.75 5.89C13.66 6.5 11.34 6.4 9.2 6.01C8.66 5.91 8.12 5.79 7.59 5.65L9.37 8.27C13.18 9.63 17.69 9.63 21.51 8.27ZM8.3 9.85C12.76 11.58 18.13 11.58 22.59 9.85C24.46 11.81 26.01 14.05 27.22 16.47C28.47 19.03 29.15 21.59 29.04 23.79C28.93 25.92 28.1 27.73 26.19 29.08C24.2 30.49 20.85 31.52 15.49 31.52C10.12 31.52 6.76 30.51 4.75 29.12C2.83 27.78 1.98 25.99 1.86 23.89C1.74 21.72 2.41 19.17 3.66 16.6C4.85 14.14 6.51 11.78 8.3 9.85ZM7.23 3.63C7.97 3.85 8.75 4.04 9.53 4.18C11.53 4.55 13.53 4.61 15.23 4.11C17.22 3.53 19.24 3.08 21.29 2.75C19.58 2.23 17.58 1.85 15.49 1.85C12.29 1.85 9.32 2.74 7.23 3.63Z" fill="#FAFAFA" fill-opacity="1.000000" fill-rule="evenodd"/>
	<path id="Vector" d="M23.71 8.34L26.57 4.16L27.14 3.33C26.91 3.18 26.62 3 26.28 2.82C26.05 2.69 25.79 2.55 25.52 2.42L25.39 2.36C23.13 1.26 19.49 0 15.49 0C11.41 0 7.67 1.31 5.4 2.43L5.4 2.43C5.17 2.54 4.96 2.65 4.76 2.75C4.72 2.77 4.67 2.8 4.63 2.82C4.29 3.01 4 3.18 3.77 3.33L4.33 4.16L7.17 8.34C-0.79 16.72 -6.73 33.37 15.49 33.37C37.71 33.37 31.61 16.41 23.71 8.34ZM8.35 8.55L8.18 8.73L8.58 8.89L8.35 8.55ZM22.3 8.89L22.7 8.74L22.53 8.56L22.3 8.89ZM24.87 3.22L24.18 3.27Q22.87 3.36 21.46 3.58L21.57 1.92Q23.23 2.43 24.87 3.22ZM21.29 2.75C20.54 2.52 19.74 2.32 18.9 2.17C17.82 1.97 16.67 1.85 15.49 1.85C13.04 1.85 10.72 2.37 8.83 3.02C8.25 3.21 7.72 3.42 7.23 3.63C7.77 3.79 8.32 3.93 8.88 4.05C9.1 4.1 9.31 4.14 9.53 4.18C11.53 4.55 13.53 4.61 15.23 4.11C16.45 3.76 17.68 3.45 18.91 3.19C19.7 3.02 20.49 2.88 21.29 2.75ZM26.97 13.95Q27.58 14.96 28.11 16.03Q28.8 17.44 29.25 18.76Q28.51 16.36 26.97 13.95ZM1.83 18.34Q2.21 17.28 2.75 16.16Q2.92 15.82 3.1 15.48Q3.25 15.19 3.41 14.9Q2.41 16.63 1.83 18.34ZM24.25 4.27L23.52 5.33L21.51 8.27C17.69 9.63 13.18 9.63 9.37 8.27L8.42 6.87L7.59 5.65C8.06 5.77 8.54 5.88 9.01 5.97C9.08 5.99 9.14 6 9.2 6.01C11.34 6.4 13.66 6.5 15.75 5.89C18.19 5.19 20.71 4.65 22.96 4.39C23.4 4.34 23.83 4.3 24.25 4.27ZM8.3 9.85C12.76 11.58 18.13 11.58 22.59 9.85C24.46 11.81 26.01 14.05 27.22 16.47C28.47 19.03 29.15 21.59 29.04 23.79C28.93 25.92 28.1 27.73 26.19 29.08C24.2 30.49 20.85 31.52 15.49 31.52C10.12 31.52 6.76 30.51 4.75 29.12C2.83 27.78 1.98 25.99 1.86 23.89C1.74 21.72 2.41 19.17 3.66 16.6C4.85 14.14 6.51 11.78 8.3 9.85Z" fill="#FAFAFA" fill-opacity="1.000000" fill-rule="evenodd"/>
</svg>
